# AST/ASF file generated using VICON BodyLanguage
# -----------------------------------------------
:version 1.10
:name VICON
:units
  mass 1.0
  length 0.45
  angle deg
:documentation
   .ast/.asf automatically generated from VICON data using
   VICON BodyBuilder and BodyLanguage model FoxedUp or BRILLIANT.MOD
:root
   order TX TY TZ RX RY RZ
   axis XYZ
   position 0 0 0  
   orientation 0 0 0 
:bonedata
  begin
     id 1 
     name lhipjoint
     direction 0.700308 -0.549349 0.455834 
     length 2.59063 
     axis 0 0 0  XYZ
  end
  begin
     id 2 
     name lfemur
     direction 0.34202 -0.939693 0  
     length 6.31066  
     axis 0 0 20  XYZ
    dof rx ry rz
    limits (-160.0 20.0)
           (-70.0 70.0)
           (-60.0 70.0)
  end
  begin
     id 3 
     name ltibia
     direction 0.34202 -0.939693 0   
     length 7.36093   
     axis 0 0 20   XYZ
    dof rx
    limits (-10.0 170.0)
  end
  begin
     id 4 
     name lfoot
     direction 0.0905332 -0.248738 0.96433   
     length 2.0233   
     axis -90 7.62852e-016 20   XYZ
    dof rx rz
    limits (-45.0 90.0)
           (-70.0 20.0)
  end
  begin
     id 5 
     name ltoes
     direction 1.53573e-011 -4.21855e-011 1   
     length 1.01524   
     axis -90 7.62852e-016 20   XYZ
    dof rx
    limits (-90.0 20.0)
  end
  begin
     id 6 
     name rhipjoint
     direction -0.61416 -0.607328 0.503944   
     length 2.34332  
     axis 0 0 0  XYZ 
  end
  begin
     id 7 
     name rfemur
     direction -0.34202 -0.939693 0   
     length 6.58548   
     axis 0 0 -20   XYZ
    dof rx ry rz
    limits (-160.0 20.0)
           (-70.0 70.0)
           (-70.0 60.0)
  end
  begin
     id 8 
     name rtibia
     direction -0.34202 -0.939693 0   
     length 7.20707   
     axis 0 0 -20   XYZ
    dof rx
    limits (-10.0 170.0)
 end
 begin
     id 9 
     name rfoot
     direction -0.136772 -0.375778 0.916561   
     length 1.92184  
     axis -90 -7.62852e-016 -20   XYZ
    dof rx rz
    limits (-45.0 90.0)
           (-20.0 70.0)
  end
  begin
     id 10 
     name rtoes
     direction -1.53535e-011 -4.21828e-011 1   
     length 0.951089   
     axis -90 -7.62852e-016 -20   XYZ
    dof rx
    limits (-90.0 20.0)
  end
  begin
     id 11 
     name lowerback
     direction -0.0444974 0.988086 -0.147332   
     length 1.9609   
     axis 0 0 0   XYZ
    dof rx ry rz
    limits (-20.0 45.0)
           (-30.0 30.0)
           (-30.0 30.0)
  end
  begin
     id 12 
     name upperback
     direction 0.00613146 0.999513 0.0306081   
     length 1.94944   
     axis 0 0 0   XYZ
    dof rx ry rz
    limits (-20.0 45.0)
           (-30.0 30.0)
           (-30.0 30.0)
  end
  begin
     id 13 
     name thorax
     direction 0.0254621 0.994518 0.101418   
     length 2.0119   
     axis 0 0 0   XYZ
    dof rx ry rz
    limits (-20.0 45.0)
           (-30.0 30.0)
           (-30.0 30.0)
  end
  begin
     id 14 
     name lowerneck
     direction 0.0168698 0.977854 0.208608   
     length 1.6375   
     axis 0 0 0   XYZ
    dof rx ry rz
    limits (-20.0 45.0)
           (-30.0 30.0)
           (-30.0 30.0)
  end
  begin
     id 15 
     name upperneck
     direction -0.0283988 0.989338 -0.142843   
     length 1.6851   
     axis 0 0 0   XYZ
    dof rx ry rz
    limits (-20.0 45.0)
           (-30.0 30.0)
           (-30.0 30.0)
  end
  begin
     id 16
     name head
     direction -0.0129422 0.99741 -0.0707489  
     length 1.69029  
     axis 0 0 0   XYZ
    dof rx ry rz
    limits (-20.0 45.0)
           (-30.0 30.0)
           (-30.0 30.0)
  end
  begin
     id 17 
     name lclavicle
     direction 0.820295 0.564628 -0.0911715  
     length 3.16484  
     axis 0 0 0   XYZ
    dof ry rz
    limits (-20.0 10.0)
           (0.0 20.0)
  end
  begin
     id 18 
     name lhumerus
     direction 1 -4.48969e-011 1.00186e-027   
     length 5.17853   
     axis 180 -30 -90   XYZ
    dof rx ry rz
    limits (-60.0 90.0)
           (-90.0 90.0)
           (-90.0 90.0)
  end
  begin
     id 19
     name lradius
     direction 1 -4.48966e-011 -1.52922e-027   
     length 3.40399   
     axis 180 -30 -90   XYZ
    dof rx
    limits (-10.0 170.0)
  end
  begin
     id 20
     name lwrist
     direction 1 -4.48981e-011 -3.80893e-027   
     length 1.70199   
     axis 1.1049e-015 90 90   XYZ
    dof ry
    limits (-180.0 0.0)
 end
  begin
     id 21 
     name lhand
     direction 1 -4.48957e-011 -7.61786e-027   
     length 0.708964   
     axis 4.86085e-015 90 90   XYZ
    dof rx rz
    limits (-90.0 90.0)
           (-45.0 45.0)
  end
  begin
     id 22 
     name lfingers
     direction 1 -4.48929e-011 -1.52357e-026   
     length 0.571585   
     axis 9.7217e-015 90 90   XYZ
    dof rx
    limits (0.0 90.0)
  end
  begin
     id 23
     name lthumb
     direction 0.707107 -6.34905e-011 0.707107   
     length 0.820685   
     axis -90 45 2.85299e-015   XYZ
    dof rx rz
    limits (-45.0 45.0)
           (-45.0 45.0)
  end
  begin
     id 24 
     name rclavicle
     direction -0.858602 0.463947 -0.218075   
     length 3.35137  
     axis 0 0 0   XYZ 
    dof ry rz
    limits (-10.0 20.0)
           (-20.0 0.0)
  end
  begin
     id 25 
     name rhumerus
     direction -1 -4.48969e-011 -1.98511e-027  
     length 5.42351   
     axis 180 30 90   XYZ
    dof rx ry rz
    limits (-90.0 60.0)
           (-90.0 90.0)
           (-90.0 90.0)
  end
  begin
     id 26 
     name rradius
     direction -1 -4.48961e-011 -2.82624e-027   
     length 3.42066   
     axis 180 30 90   XYZ
    dof rx
    limits (-10.0 170.0)
  end
  begin
     id 27 
     name rwrist
     direction -1 -4.48966e-011 -3.80893e-027   
     length 1.71033   
     axis 1.1049e-015 -90 -90   XYZ
    dof ry
    limits (-180.0 0.0)
  end
  begin
     id 28
     name rhand
     direction -1 -4.48964e-011 -7.61786e-027   
     length 0.743608   
     axis 4.86085e-015 -90 -90   XYZ
    dof rx rz
    limits (-90.0 90.0)
           (-45.0 45.0)
  end
  begin
     id 29
     name rfingers
     direction -1 -4.48961e-011 -1.52357e-026   
     length 0.599516   
     axis 9.7217e-015 -90 -90   XYZ
    dof rx
    limits (0.0 90.0)
  end
  begin
     id 30
     name rthumb
     direction -0.707107 -6.34913e-011 0.707107   
     length 0.860789   
     axis -90 -45 -2.85299e-015   XYZ
    dof rx rz
    limits (-45.0 45.0)
           (-45.0 45.0)
  end
:hierarchy
  begin
    root lhipjoint rhipjoint lowerback
    lhipjoint lfemur
    lfemur ltibia
    ltibia lfoot
    lfoot ltoes
    rhipjoint rfemur
    rfemur rtibia
    rtibia rfoot
    rfoot rtoes
    lowerback upperback
    upperback thorax
    thorax lowerneck lclavicle rclavicle
    lowerneck upperneck
    upperneck head
    lclavicle lhumerus
    lhumerus lradius
    lradius lwrist
    lwrist lhand lthumb
    lhand lfingers
    rclavicle rhumerus
    rhumerus rradius
    rradius rwrist
    rwrist rhand rthumb
    rhand rfingers
  end

#!OML:ASF E:\mmandel\Project 1\Capture day 1\Session 2\Subject.ASF
:FULLY-SPECIFIED
:DEGREES
2561
root 9.85337 14.8047 0.432733 836.176 85.0187 817.784
lowerback 17.9044 2.17145 -2.6318
upperback 2.54915 2.49392 0.0983015
thorax -7.39665 1.33441 0.995193
lowerneck -16.2129 4.01783 7.43376
upperneck 8.33687 4.96336 -9.1667
head 5.57965 2.02538 -3.63671
rclavicle -3.97569e-015 -7.95139e-016
rhumerus -11.0612 -4.11463 -73.4696
rradius 62.4409
rwrist -20.3041
rhand -10.3808 27.4
rfingers 7.12502
rthumb 15.617 -1.98955
lclavicle -3.97569e-015 -7.95139e-016
lhumerus -22.8036 -15.4262 80.7397
lradius 54.0509
lwrist 26.6444
lhand -16.563 -32.678
lfingers 7.12502
lthumb 9.65704 -2.91936
rfemur -50.6423 -13.1563 6.43719
rtibia 64.67
rfoot -30.3491 -11.6484
rtoes -19.5845
lfemur -49.5825 16.8974 -15.2716
ltibia 53.8187
lfoot -17.5063 -3.83788
ltoes -13.6838
2562
root 9.85887 14.8023 0.451624 836.242 84.8013 817.892
lowerback 17.9323 2.20465 -2.80557
upperback 2.56399 2.50151 0.0594256
thorax -7.40148 1.34265 1.04936
lowerneck -16.3709 4.02446 6.6595
upperneck 8.53819 5.03057 -8.32353
head 5.62912 2.08489 -3.23151
rclavicle 9.14409e-015 -3.97569e-014
rhumerus -11.0583 -4.09499 -73.3607
rradius 62.3867
rwrist -20.3877
rhand -10.3953 27.5854
rfingers 7.12502
rthumb 15.6029 -1.80532
lclavicle 9.14409e-015 -3.97569e-014
lhumerus -22.8432 -15.4632 80.7802
lradius 54.0584
lwrist 26.607
lhand -16.5009 -32.6102
lfingers 7.12502
lthumb 9.7169 -2.85436
rfemur -50.6202 -13.267 6.2912
rtibia 64.7817
rfoot -30.4489 -11.6463
rtoes -19.4663
lfemur -49.4515 16.8032 -15.3928
ltibia 53.7057
lfoot -17.4782 -3.83593
ltoes -13.5778
2563
root 9.86003 14.7962 0.464208 836.258 84.6629 817.91
lowerback 17.9549 2.19897 -2.82403
upperback 2.56802 2.48547 -0.00367011
thorax -7.40657 1.33486 0.995343
lowerneck -15.6945 4.18654 7.25781
upperneck 7.85513 5.16676 -8.69391
head 5.34174 2.16853 -3.43924
rclavicle 2.54444e-014 -2.38542e-014
rhumerus -10.9146 -4.11534 -73.3654
rradius 62.1841
rwrist -20.3638
rhand -10.482 27.6561
rfingers 7.12502
rthumb 15.5195 -1.74108
lclavicle 2.54444e-014 -2.38542e-014
lhumerus -22.8206 -15.455 80.7614
lradius 54.0036
lwrist 26.5424
lhand -16.5129 -32.5541
lfingers 7.12502
lthumb 9.70532 -2.79774
rfemur -50.6669 -13.3452 6.19607
rtibia 64.8842
rfoot -30.4422 -11.6114
rtoes -19.5118
lfemur -49.4001 16.6899 -15.4525
ltibia 53.6254
lfoot -17.3806 -3.824
ltoes -13.0145
2564
root 9.8614 14.7964 0.470357 835.843 84.6576 817.447
lowerback 17.9525 2.20325 -2.67086
upperback 2.54114 2.51486 -0.0547432
thorax -7.42686 1.34398 0.846249
lowerneck -15.3647 4.42771 7.88524
upperneck 7.63654 5.43175 -9.19571
head 5.27479 2.29416 -3.67836
rclavicle -1.55052e-014 -7.95139e-015
rhumerus -10.8723 -4.24634 -73.4185
rradius 62.0678
rwrist -20.2177
rhand -10.4611 27.5661
rfingers 7.12502
rthumb 15.5396 -1.82948
lclavicle -1.55052e-014 -7.95139e-015
lhumerus -22.8378 -15.4945 80.7748
lradius 54.0253
lwrist 26.5774
lhand -16.4885 -32.6424
lfingers 7.12502
lthumb 9.72891 -2.88713
rfemur -50.7289 -13.3563 6.2111
rtibia 64.9374
rfoot -30.4213 -11.5306
rtoes -19.439
lfemur -49.3831 16.6517 -15.4295
ltibia 53.5682
lfoot -17.3769 -3.82448
ltoes -12.8262
2565
root 9.86524 14.7995 0.479271 836.077 84.6243 817.614
lowerback 17.8889 2.22811 -2.56292
upperback 2.52758 2.56668 -0.0818136
thorax -7.40302 1.36516 0.745553
lowerneck -16.8535 4.24219 6.14168
upperneck 9.08556 5.33525 -7.54301
head 5.86521 2.25375 -2.86018
rclavicle 1.63003e-014 1.11319e-014
rhumerus -10.9256 -4.4784 -73.4112
rradius 62.102
rwrist -20.0584
rhand -10.3043 27.3948
rfingers 7.12502
rthumb 15.6906 -1.98903
lclavicle 1.63003e-014 1.11319e-014
lhumerus -22.8541 -15.62 80.8228
lradius 54.0514
lwrist 26.6211
lhand -16.3113 -32.9699
lfingers 7.12502
lthumb 9.8998 -3.22264
rfemur -50.7854 -13.4074 6.23423
rtibia 64.9731
rfoot -30.4305 -11.5366
rtoes -19.2323
lfemur -49.4157 16.6468 -15.4503
ltibia 53.5193
lfoot -17.4284 -3.90815
ltoes -13.0589
2566
root 9.86577 14.7993 0.491682 837.219 84.607 818.715
lowerback 17.8672 2.23745 -2.4629
upperback 2.52334 2.59848 -0.0802778
thorax -7.39269 1.37763 0.683616
lowerneck -16.7583 4.52855 6.89667
upperneck 9.31437 5.6274 -7.98363
head 5.97841 2.38842 -3.09355
rclavicle -9.14409e-015 5.64548e-014
rhumerus -10.9505 -4.59869 -73.3417
rradius 62.1262
rwrist -20.0179
rhand -10.3416 27.3052
rfingers 7.12502
rthumb 15.6547 -2.08145
lclavicle -9.14409e-015 5.64548e-014
lhumerus -22.7879 -15.7619 80.8463
lradius 53.9574
lwrist 26.619
lhand -16.2841 -33.1164
lfingers 7.12502
lthumb 9.92605 -3.37046
rfemur -50.85 -13.4656 6.30968
rtibia 65.02
rfoot -30.449 -11.5916
rtoes -19.2259
lfemur -49.4869 16.6349 -15.4201
ltibia 53.4863
lfoot -17.3919 -3.95647
ltoes -13.1644
2567
root 9.86409 14.7957 0.503382 838.102 84.6516 819.62
lowerback 17.9404 2.24593 -2.35343
upperback 2.51321 2.6305 -0.0532055
thorax -7.44119 1.39063 0.640021
lowerneck -15.7031 4.58485 7.98061
upperneck 7.91773 5.61353 -9.16206
head 5.43517 2.37642 -3.66095
rclavicle 1.11319e-014 -1.51076e-014
rhumerus -10.9654 -4.52209 -73.2504
rradius 62.1172
rwrist -20.1488
rhand -10.5096 27.2821
rfingers 7.12502
rthumb 15.4929 -2.11711
lclavicle 1.11319e-014 -1.51076e-014
lhumerus -22.7743 -15.8993 80.886
lradius 53.9057
lwrist 26.6324
lhand -16.4729 -33.0084
lfingers 7.12502
lthumb 9.7439 -3.25377
rfemur -50.8545 -13.4697 6.42813
rtibia 65.0783
rfoot -30.5072 -11.5702
rtoes -19.2116
lfemur -49.4977 16.6434 -15.2961
ltibia 53.4852
lfoot -17.2732 -3.98841
ltoes -12.8889
2568
root 9.86483 14.7924 0.512371 838.806 84.7252 820.336
lowerback 17.9596 2.23437 -2.21497
upperback 2.53608 2.64622 -0.00801116
thorax -7.42348 1.39514 0.606153
lowerneck -16.3748 4.46161 6.96975
upperneck 8.34799 5.52684 -8.23443
head 5.61325 2.34505 -3.20094
rclavicle -1.23246e-014 -1.35174e-014
rhumerus -10.9473 -4.41922 -73.172
rradius 62.1907
rwrist -20.284
rhand -10.4288 27.2356
rfingers 7.12502
rthumb 15.5707 -2.15763
lclavicle -1.23246e-014 -1.35174e-014
lhumerus -22.7429 -15.8546 80.9332
lradius 53.8712
lwrist 26.605
lhand -16.5173 -33.0388
lfingers 7.12502
lthumb 9.7011 -3.28224
rfemur -50.8414 -13.4873 6.57652
rtibia 65.1443
rfoot -30.6 -11.5165
rtoes -19.07
lfemur -49.4998 16.6378 -15.1374
ltibia 53.5063
lfoot -17.1725 -4.05694
ltoes -12.34
2569
root 9.86806 14.788 0.520342 839.905 84.7784 821.353
lowerback 17.8649 2.18538 -2.06899
upperback 2.53946 2.61515 0.0333392
thorax -7.36295 1.37638 0.578955
lowerneck -15.9181 4.79374 7.75683
upperneck 7.95965 5.90833 -8.9795
head 5.49626 2.52017 -3.53251
rclavicle -3.02153e-014 -9.54166e-015
rhumerus -10.9547 -4.33761 -73.1393
rradius 62.2806
rwrist -20.2832
rhand -10.3736 27.2413
rfingers 7.12502
rthumb 15.6239 -2.14779
lclavicle -3.02153e-014 -9.54166e-015
lhumerus -22.7152 -15.6199 80.9416
lradius 53.8337
lwrist 26.4827
lhand -16.3666 -33.0992
lfingers 7.12502
lthumb 9.84645 -3.34945
rfemur -50.92 -13.5857 6.7424
rtibia 65.2126
rfoot -30.6822 -11.4776
rtoes -18.992
lfemur -49.6142 16.5996 -15.023
ltibia 53.52
lfoot -17.1365 -4.07315
ltoes -12.3363
2570
root 9.87234 14.7835 0.532852 840.536 84.7673 821.945
lowerback 17.8008 2.16967 -2.07593
upperback 2.53974 2.59673 0.0626828
thorax -7.32891 1.36786 0.621063
lowerneck -16.7864 4.67012 6.75284
upperneck 8.86478 5.8292 -8.00038
head 5.85259 2.48586 -3.05308
rclavicle -2.38542e-014 -3.26007e-014
rhumerus -10.916 -4.28148 -73.1376
rradius 62.2334
rwrist -20.2435
rhand -10.5336 27.2723
rfingers 7.12502
rthumb 15.4697 -2.12875
lclavicle -2.38542e-014 -3.26007e-014
lhumerus -22.7507 -15.4569 80.9567
lradius 53.8368
lwrist 26.4132
lhand -16.2767 -33.0254
lfingers 7.12502
lthumb 9.93325 -3.27977
rfemur -50.9632 -13.6338 6.8175
rtibia 65.2618
rfoot -30.7528 -11.4396
rtoes -18.8571
lfemur -49.6505 16.5987 -14.9741
ltibia 53.47
lfoot -17.1071 -4.13181
ltoes -12.4531
2571
root 9.87503 14.7859 0.545907 840.001 84.6955 821.42
lowerback 17.7519 2.21475 -2.18526
upperback 2.57026 2.63677 0.0540899
thorax -7.27484 1.38999 0.666569
lowerneck -16.5485 4.73609 6.99529
upperneck 8.60861 5.89945 -8.26121
head 5.75451 2.51815 -3.17156
rclavicle 4.05521e-014 1.59028e-014
rhumerus -10.8021 -4.28699 -73.1077
rradius 62.1134
rwrist -20.2314
rhand -10.6272 27.1678
rfingers 7.12502
rthumb 15.3796 -2.24016
lclavicle 4.05521e-014 1.59028e-014
lhumerus -22.7208 -15.4977 80.9972
lradius 53.7664
lwrist 26.446
lhand -16.3334 -32.9792
lfingers 7.12502
lthumb 9.87847 -3.23095
rfemur -50.9739 -13.5954 6.76925
rtibia 65.2755
rfoot -30.7744 -11.4124
rtoes -18.6744
lfemur -49.5425 16.6236 -15.0125
ltibia 53.3284
lfoot -17.0802 -4.16574
ltoes -12.4823
2572
root 9.877 14.7962 0.556575 839.435 84.5751 820.844
lowerback 17.7291 2.26391 -2.27084
upperback 2.591 2.68399 0.0219181
thorax -7.24373 1.41465 0.670558
lowerneck -16.291 4.77269 7.44239
upperneck 8.27807 5.9069 -8.70294
head 5.63783 2.51574 -3.38822
rclavicle -1.03368e-014 -6.36111e-015
rhumerus -10.6727 -4.39957 -73.0729
rradius 61.9545
rwrist -20.1843
rhand -10.6183 27.027
rfingers 7.12502
rthumb 15.3882 -2.3803
lclavicle -1.03368e-014 -6.36111e-015
lhumerus -22.6394 -15.7162 81.0481
lradius 53.6566
lwrist 26.5737
lhand -16.4602 -32.8861
lfingers 7.12502
lthumb 9.75613 -3.13208
rfemur -50.9827 -13.612 6.68275
rtibia 65.2696
rfoot -30.7395 -11.4691
rtoes -18.6231
lfemur -49.4177 16.6543 -15.1428
ltibia 53.1391
lfoot -17.0235 -4.18161
ltoes -12.6178
2573
root 9.88078 14.8059 0.57009 839.598 84.4907 821.007
lowerback 17.7348 2.27315 -2.37152
upperback 2.63903 2.68144 0.0461868
thorax -7.20055 1.41671 0.75495
lowerneck -16.2671 4.8715 7.86589
upperneck 8.05045 6.00163 -9.18738
head 5.60067 2.54603 -3.60244
rclavicle -3.61788e-014 -9.54166e-015
rhumerus -10.4282 -4.47186 -73.0463
rradius 61.7233
rwrist -20.1418
rhand -10.6307 27.1168
rfingers 7.12502
rthumb 15.3762 -2.29148
lclavicle -3.61788e-014 -9.54166e-015
lhumerus -22.5536 -15.7491 81.0848
lradius 53.6323
lwrist 26.6107
lhand -16.4905 -32.8427
lfingers 7.12502
lthumb 9.72695 -3.08728
rfemur -50.9433 -13.6163 6.6689
rtibia 65.2696
rfoot -30.7403 -11.6138
rtoes -18.7656
lfemur -49.3258 16.755 -15.2271
ltibia 52.9702
lfoot -16.9013 -4.34743
ltoes -12.3242
2574
root 9.88461 14.8027 0.580778 839.305 84.4674 820.686
lowerback 17.6773 2.28495 -2.45254
upperback 2.65268 2.68542 0.0712746
thorax -7.15948 1.42081 0.8291
lowerneck -16.3413 4.99535 7.80888
upperneck 8.09617 6.17854 -9.17832
head 5.64058 2.62876 -3.57015
rclavicle 1.51076e-014 8.74653e-015
rhumerus -10.399 -4.41796 -72.9718
rradius 61.6272
rwrist -20.155
rhand -10.5814 27.3976
rfingers 7.12502
rthumb 15.4237 -2.00703
lclavicle 1.51076e-014 8.74653e-015
lhumerus -22.6074 -15.6006 81.1202
lradius 53.7009
lwrist 26.4634
lhand -16.3358 -32.9583
lfingers 7.12502
lthumb 9.87623 -3.20999
rfemur -50.9804 -13.5896 6.68177
rtibia 65.3176
rfoot -30.7732 -11.6343
rtoes -18.8521
lfemur -49.3067 16.8248 -15.2333
ltibia 52.8937
lfoot -16.8683 -4.38554
ltoes -12.4332
